<svg xmlns="http://www.w3.org/2000/svg" width="512" height="512" viewBox="0 0 512 512">
  <defs>
    <linearGradient id="bg" x1="0%" y1="0%" x2="100%" y2="100%">
      <stop offset="0%" stop-color="#1a73e8"/>
      <stop offset="100%" stop-color="#0d47a1"/>
    </linearGradient>
  </defs>
  <rect width="512" height="512" rx="96" fill="url(#bg)"/>
  <g transform="translate(0,70) scale(0.8)">
    <path d="M320 32c-8.1 0-16.1 1.4-23.7 4.1L15.8 137.4C6.3 140.9 0 149.9 0 160s6.3 19.1 15.8 22.6l57.9 20.9C57.3 229.3 48 259.8 48 288c0 40.2 16.3 78.5 48.4 108.4l-24.3 40.5c-4.6 7.7-5.1 17.1-1.2 25.2S83.7 480 92.7 480H192c15.3 0 29.3-7.6 37.7-20.1l34.1-56.9c14.9 5.3 30.9 9 48.2 11V416h16v-17.9c17.3-2 33.3-5.7 48.2-11l34.1 56.9c8.4 12.5 22.4 20.1 37.7 20.1h99.3c9 0 17.3-5.1 21.2-13.2s3.4-17.5-1.2-25.2l-24.3-40.5c32.1-29.9 48.4-68.2 48.4-108.4c0-28.2-9.3-58.7-25.8-85.7l57.9-20.9C633.7 179.1 640 170.1 640 160s-6.3-19.1-15.8-22.6L343.7 36.1C336.1 33.4 328.1 32 320 32z" fill="#fff"/>
  </g>
</svg>
